<?xml version="1.0" encoding="UTF-8" standalone="no"?>
<!-- Generator: Adobe Illustrator 16.0.0, SVG Export Plug-In . SVG Version: 6.00 Build 0)  -->
<svg xmlns:dc="http://purl.org/dc/elements/1.1/" xmlns:cc="http://creativecommons.org/ns#" xmlns:rdf="http://www.w3.org/1999/02/22-rdf-syntax-ns#" xmlns:svg="http://www.w3.org/2000/svg" xmlns="http://www.w3.org/2000/svg" xmlns:sodipodi="http://sodipodi.sourceforge.net/DTD/sodipodi-0.dtd" xmlns:inkscape="http://www.inkscape.org/namespaces/inkscape" version="1.1" id="レイヤー_1" x="0px" y="0px" width="128px" height="128px" viewBox="0 0 128 128" enable-background="new 0 0 128 128" xml:space="preserve" inkscape:version="0.91 r13725" sodipodi:docname="Emoji_GrinningFaceSmilingEyes.svg"><title id="title3410">Grinning Face with Smiling Eyes</title><metadata id="metadata3353"><rdf:RDF><cc:Work rdf:about=""><dc:format>image/svg+xml</dc:format><dc:type rdf:resource="http://purl.org/dc/dcmitype/StillImage"/><dc:title>Grinning Face with Smiling Eyes</dc:title></cc:Work></rdf:RDF></metadata><defs id="defs3351"><pattern y="0" x="0" height="6" width="6" patternUnits="userSpaceOnUse" id="EMFhbasepattern"/></defs><sodipodi:namedview pagecolor="#ffffff" bordercolor="#666666" borderopacity="1" objecttolerance="10" gridtolerance="10" guidetolerance="10" inkscape:pageopacity="0" inkscape:pageshadow="2" inkscape:window-width="2048" inkscape:window-height="1089" id="namedview3349" showgrid="false" inkscape:zoom="4.8558349" inkscape:cx="66.859351" inkscape:cy="65.507282" inkscape:window-x="-8" inkscape:window-y="-8" inkscape:window-maximized="1" inkscape:current-layer="g3337"/><g id="g3337"><g id="g3339"><path d="M127.59,93.59c0,13.94-28.46,25.25-63.59,25.25c-35.12,0-63.6-11.31-63.6-25.25    C0.41,79.63,1.88,9.17,64,9.17C126.12,9.17,127.59,79.63,127.59,93.59" id="path3341" fill="#FCC21B"/></g><path inkscape:connector-curvature="0" id="path3366" d="m 32.835857,50.9156 c -0.435936,0 -0.871872,-0.07389 -1.235173,-0.295204 -1.235139,-0.737695 -1.671074,-2.286905 -0.944504,-3.541016 0.145197,-0.295204 3.99605,-6.78697 12.424052,-6.78697 8.427968,0 12.278752,6.491905 12.424052,6.78697 0.726571,1.254111 0.290739,2.803321 -0.944538,3.541016 -1.162471,0.663947 -2.688245,0.295204 -3.414711,-0.959011 -0.145197,-0.221316 -2.615612,-4.204964 -8.064803,-4.204964 -5.594422,0 -8.064699,4.13118 -8.064699,4.204964 -0.435935,0.811444 -1.307805,1.254076 -2.179676,1.254076 z" style="fill:#2f2f2f;fill-opacity:1;fill-rule:nonzero;stroke:none"/><path inkscape:connector-curvature="0" id="path3368" d="m 94.88348,50.9156 c -0.94453,0 -1.74374,-0.442631 -2.25234,-1.254075 -0.0727,-0.147429 -2.542835,-4.204965 -7.992034,-4.204965 -5.521852,0 -7.992068,4.057432 -8.064695,4.204965 -0.726574,1.180327 -2.325012,1.622958 -3.487487,0.885228 -1.162502,-0.663913 -1.598438,-2.286871 -0.871865,-3.467233 0.145191,-0.295205 3.923413,-6.78697 12.424047,-6.78697 8.427964,0 12.278754,6.491904 12.424064,6.78697 0.65389,1.25411 0.29073,2.80332 -0.94455,3.541016 -0.36326,0.221316 -0.7992,0.295204 -1.23514,0.295204 z" style="fill:#2f2f2f;fill-opacity:1;fill-rule:nonzero;stroke:none"/><path inkscape:connector-curvature="0" id="path3370" d="m 26.514795,64.48954 c 0,0 3.414815,26.926562 38.071394,26.926562 34.656651,0 38.071191,-26.926562 38.071191,-26.926562 0,0 -11.55202,2.139409 -38.071191,2.139409 -26.519109,0 -38.071394,-2.139409 -38.071394,-2.139409 z" style="fill:#ffffff;fill-opacity:1;fill-rule:nonzero;stroke:none"/><path inkscape:connector-curvature="0" id="path3372" d="m 37.195209,83.689282 c -1.089838,0 -2.034376,-0.452064 -2.034376,-1.024674 l 0,-16.756533 c 0,-0.542438 0.944538,-0.994506 2.034376,-0.994506 1.162403,0 2.034273,0.452068 2.034273,0.994506 l 0,16.756533 c 0,0.57261 -0.87187,1.024674 -2.034273,1.024674 z" style="fill:#2f2f2f;fill-opacity:1;fill-rule:nonzero;stroke:none"/><path inkscape:connector-curvature="0" id="path3374" d="m 50.8544,89.867417 c -1.162471,0 -2.034342,-0.556191 -2.034342,-1.260692 l 0,-20.61614 c 0,-0.667381 0.871871,-1.223575 2.034342,-1.223575 1.162402,0 2.034273,0.556194 2.034273,1.223575 l 0,20.61614 c 0,0.704501 -0.871871,1.260692 -2.034273,1.260692 z" style="fill:#2f2f2f;fill-opacity:1;fill-rule:nonzero;stroke:none"/><path inkscape:connector-curvature="0" id="path3376" d="m 64.513522,92.544608 c -1.162403,0 -2.106941,-0.655356 -2.106941,-1.48547 l 0,-24.291958 c 0,-0.786372 0.944538,-1.441735 2.106941,-1.441735 1.089838,0 2.034376,0.655363 2.034376,1.441735 l 0,24.291958 c 0,0.830114 -0.944538,1.48547 -2.034376,1.48547 z" style="fill:#2f2f2f;fill-opacity:1;fill-rule:nonzero;stroke:none"/><path inkscape:connector-curvature="0" id="path3378" d="m 78.100084,91.514919 c -1.089734,0 -2.034277,-0.605774 -2.034277,-1.373081 l 0,-22.454049 c 0,-0.726876 0.944543,-1.332655 2.034277,-1.332655 1.162462,0 2.107005,0.605779 2.107005,1.332655 l 0,22.454049 c 0,0.767307 -0.944543,1.373081 -2.107005,1.373081 z" style="fill:#2f2f2f;fill-opacity:1;fill-rule:nonzero;stroke:none"/><path inkscape:connector-curvature="0" id="path3380" d="m 91.75927,84.513034 c -1.162474,0 -2.034277,-0.457021 -2.034277,-1.035913 l 0,-16.940324 c 0,-0.548388 0.871803,-1.005414 2.034277,-1.005414 1.1625,0 2.03438,0.457026 2.03438,1.005414 l 0,16.940324 c 0,0.578892 -0.87188,1.035913 -2.03438,1.035913 z" style="fill:#2f2f2f;fill-opacity:1;fill-rule:nonzero;stroke:none"/><path inkscape:connector-curvature="0" id="path3390" d="m 64.586189,93.703039 c -36.25502,0 -40.323634,-28.6233 -40.323634,-28.918401 -0.145198,-0.663947 0.145197,-1.401678 0.653902,-1.918058 0.5085,-0.516415 1.307703,-0.73773 1.961605,-0.590198 0.145198,0 11.77015,2.065626 37.708127,2.065626 25.937942,0 37.562891,-2.065626 37.708191,-2.065626 0.6536,-0.147428 1.45283,0.07389 1.9614,0.590198 0.5086,0.51638 0.79924,1.254111 0.65391,1.918058 0,0.295204 -4.14108,28.918401 -40.323501,28.918401 z M 29.493675,67.292896 c 2.034375,6.639367 9.445172,21.836268 35.092514,21.836268 25.284147,0 32.912901,-15.196901 35.092577,-21.836268 -5.231226,0.663947 -16.492795,1.696742 -35.092577,1.696742 -18.672378,0 -29.933959,-1.032795 -35.092514,-1.696742 z" style="fill:#2f2f2f;fill-opacity:1;fill-rule:nonzero;stroke:none"/></g></svg>